# xmcd
#
# Track frame offsets: 
#        150
#        13325
#        26445
#        41599
#        58007
#        69706
#        82018
#        101268
#        114416
#        127898
#        143135
#        159988
#        167312
#
# Disc length: 2391 seconds
#
# Revision: 0
# Processed by: cddbd v1.5.2PL0 Copyright (c) Steve Scherf et al.
# Submitted via: ExactAudioCopy v0.99pb3
#
DISCID=a009550d
DTITLE=Marcia Mello - Roots Blues
DYEAR=2003
DGENRE=Blues
TTITLE0=Love Changing Blues
TTITLE1=Statesboro Blues
TTITLE2=Trouble Blues
TTITLE3=Police Dog Blues
TTITLE4=Hunky Tunky Blues
TTITLE5=I Get The Blues
TTITLE6=Moon Going Down
TTITLE7=Untrue Blues
TTITLE8=Custard Pie
TTITLE9=Jump And Shout
TTITLE10=Weeping Willow
TTITLE11=Venice Song
TTITLE12=London Town
EXTD=
EXTT0=
EXTT1=
EXTT2=
EXTT3=
EXTT4=
EXTT5=
EXTT6=
EXTT7=
EXTT8=
EXTT9=
EXTT10=
EXTT11=
EXTT12=
PLAYORDER=
